<svg width="20" height="16" viewBox="0 0 20 16" fill="none" xmlns="http://www.w3.org/2000/svg">
<rect y="0.858398" width="20" height="14.2857" rx="1.66667" fill="white"/>
<mask id="mask0_17_2430" style="mask-type:luminance" maskUnits="userSpaceOnUse" x="0" y="0" width="20" height="16">
<rect y="0.858398" width="20" height="14.2857" rx="1.66667" fill="white"/>
</mask>
<g mask="url(#mask0_17_2430)">
<path fill-rule="evenodd" clip-rule="evenodd" d="M20 0.858398H0V1.81078H20V0.858398ZM20 2.76298H0V3.71536H20V2.76298ZM0 4.66789H20V5.62027H0V4.66789ZM20 6.57259H0V7.52497H20V6.57259ZM0 8.47729H20V9.42968H0V8.47729ZM20 10.382H0V11.3344H20V10.382ZM0 12.2869H20V13.2393H0V12.2869ZM20 14.1916H0V15.144H20V14.1916Z" fill="#D02F44"/>
<rect y="0.858398" width="8.57143" height="6.66667" fill="#46467F"/>
<g filter="url(#filter0_d_17_2430)">
<path fill-rule="evenodd" clip-rule="evenodd" d="M1.90479 2.28674C1.90479 2.54973 1.69159 2.76293 1.4286 2.76293C1.16561 2.76293 0.952408 2.54973 0.952408 2.28674C0.952408 2.02374 1.16561 1.81055 1.4286 1.81055C1.69159 1.81055 1.90479 2.02374 1.90479 2.28674ZM3.80953 2.28682C3.80953 2.54981 3.59633 2.76301 3.33334 2.76301C3.07034 2.76301 2.85715 2.54981 2.85715 2.28682C2.85715 2.02383 3.07034 1.81063 3.33334 1.81063C3.59633 1.81063 3.80953 2.02383 3.80953 2.28682ZM5.23812 2.76301C5.50111 2.76301 5.71431 2.54981 5.71431 2.28682C5.71431 2.02383 5.50111 1.81063 5.23812 1.81063C4.97512 1.81063 4.76193 2.02383 4.76193 2.28682C4.76193 2.54981 4.97512 2.76301 5.23812 2.76301ZM7.61906 2.28682C7.61906 2.54981 7.40587 2.76301 7.14287 2.76301C6.87988 2.76301 6.66668 2.54981 6.66668 2.28682C6.66668 2.02383 6.87988 1.81063 7.14287 1.81063C7.40587 1.81063 7.61906 2.02383 7.61906 2.28682ZM2.38096 3.71536C2.64395 3.71536 2.85715 3.50216 2.85715 3.23917C2.85715 2.97618 2.64395 2.76298 2.38096 2.76298C2.11797 2.76298 1.90477 2.97618 1.90477 3.23917C1.90477 3.50216 2.11797 3.71536 2.38096 3.71536ZM4.76191 3.23917C4.76191 3.50216 4.54871 3.71536 4.28572 3.71536C4.02272 3.71536 3.80952 3.50216 3.80952 3.23917C3.80952 2.97618 4.02272 2.76298 4.28572 2.76298C4.54871 2.76298 4.76191 2.97618 4.76191 3.23917ZM6.19049 3.71536C6.45349 3.71536 6.66668 3.50216 6.66668 3.23917C6.66668 2.97618 6.45349 2.76298 6.19049 2.76298C5.9275 2.76298 5.7143 2.97618 5.7143 3.23917C5.7143 3.50216 5.9275 3.71536 6.19049 3.71536ZM7.61906 4.19152C7.61906 4.45452 7.40587 4.66771 7.14287 4.66771C6.87988 4.66771 6.66668 4.45452 6.66668 4.19152C6.66668 3.92853 6.87988 3.71533 7.14287 3.71533C7.40587 3.71533 7.61906 3.92853 7.61906 4.19152ZM5.23812 4.66771C5.50111 4.66771 5.71431 4.45452 5.71431 4.19152C5.71431 3.92853 5.50111 3.71533 5.23812 3.71533C4.97512 3.71533 4.76193 3.92853 4.76193 4.19152C4.76193 4.45452 4.97512 4.66771 5.23812 4.66771ZM3.80953 4.19152C3.80953 4.45452 3.59633 4.66771 3.33334 4.66771C3.07034 4.66771 2.85715 4.45452 2.85715 4.19152C2.85715 3.92853 3.07034 3.71533 3.33334 3.71533C3.59633 3.71533 3.80953 3.92853 3.80953 4.19152ZM1.42858 4.66771C1.69158 4.66771 1.90477 4.45452 1.90477 4.19152C1.90477 3.92853 1.69158 3.71533 1.42858 3.71533C1.16559 3.71533 0.952393 3.92853 0.952393 4.19152C0.952393 4.45452 1.16559 4.66771 1.42858 4.66771ZM2.85715 5.14387C2.85715 5.40687 2.64395 5.62006 2.38096 5.62006C2.11797 5.62006 1.90477 5.40687 1.90477 5.14387C1.90477 4.88088 2.11797 4.66768 2.38096 4.66768C2.64395 4.66768 2.85715 4.88088 2.85715 5.14387ZM4.28572 5.62006C4.54871 5.62006 4.76191 5.40687 4.76191 5.14387C4.76191 4.88088 4.54871 4.66768 4.28572 4.66768C4.02272 4.66768 3.80952 4.88088 3.80952 5.14387C3.80952 5.40687 4.02272 5.62006 4.28572 5.62006ZM6.66668 5.14387C6.66668 5.40687 6.45349 5.62006 6.19049 5.62006C5.9275 5.62006 5.7143 5.40687 5.7143 5.14387C5.7143 4.88088 5.9275 4.66768 6.19049 4.66768C6.45349 4.66768 6.66668 4.88088 6.66668 5.14387ZM7.14287 6.57262C7.40587 6.57262 7.61906 6.35942 7.61906 6.09643C7.61906 5.83344 7.40587 5.62024 7.14287 5.62024C6.87988 5.62024 6.66668 5.83344 6.66668 6.09643C6.66668 6.35942 6.87988 6.57262 7.14287 6.57262ZM5.71431 6.09643C5.71431 6.35942 5.50111 6.57262 5.23812 6.57262C4.97512 6.57262 4.76193 6.35942 4.76193 6.09643C4.76193 5.83344 4.97512 5.62024 5.23812 5.62024C5.50111 5.62024 5.71431 5.83344 5.71431 6.09643ZM3.33334 6.57262C3.59633 6.57262 3.80953 6.35942 3.80953 6.09643C3.80953 5.83344 3.59633 5.62024 3.33334 5.62024C3.07034 5.62024 2.85715 5.83344 2.85715 6.09643C2.85715 6.35942 3.07034 6.57262 3.33334 6.57262ZM1.90477 6.09643C1.90477 6.35942 1.69158 6.57262 1.42858 6.57262C1.16559 6.57262 0.952393 6.35942 0.952393 6.09643C0.952393 5.83344 1.16559 5.62024 1.42858 5.62024C1.69158 5.62024 1.90477 5.83344 1.90477 6.09643Z" fill="url(#paint0_linear_17_2430)"/>
</g>
</g>
<defs>
<filter id="filter0_d_17_2430" x="0.952393" y="1.81055" width="6.66666" height="5.5953" filterUnits="userSpaceOnUse" color-interpolation-filters="sRGB">
<feFlood flood-opacity="0" result="BackgroundImageFix"/>
<feColorMatrix in="SourceAlpha" type="matrix" values="0 0 0 0 0 0 0 0 0 0 0 0 0 0 0 0 0 0 127 0" result="hardAlpha"/>
<feOffset dy="0.833333"/>
<feColorMatrix type="matrix" values="0 0 0 0 0 0 0 0 0 0 0 0 0 0 0 0 0 0 0.06 0"/>
<feBlend mode="normal" in2="BackgroundImageFix" result="effect1_dropShadow_17_2430"/>
<feBlend mode="normal" in="SourceGraphic" in2="effect1_dropShadow_17_2430" result="shape"/>
</filter>
<linearGradient id="paint0_linear_17_2430" x1="0.952393" y1="1.81055" x2="0.952393" y2="6.57245" gradientUnits="userSpaceOnUse">
<stop stop-color="white"/>
<stop offset="1" stop-color="#F0F0F0"/>
</linearGradient>
</defs>
</svg>
