<svg width="33" height="32" viewBox="0 0 33 32" fill="none" xmlns="http://www.w3.org/2000/svg">
<path d="M28.764 20.1556L26.7124 18.1041C26.6605 18.0521 26.6786 17.9652 26.745 17.9362C27.4695 17.6235 28.147 17.2202 28.764 16.7432C28.985 16.5718 29.1975 16.3918 29.4016 16.2023C29.9968 15.6492 30.5197 15.0201 30.9544 14.3294C30.9556 14.327 30.9568 14.3258 30.958 14.3234C31.2213 13.9044 31.4531 13.4624 31.6487 13.0024C32.1208 11.8915 32.3841 10.6707 32.3889 9.38832C32.3889 9.38832 32.3889 9.38712 32.3889 9.38591C32.3889 9.37384 32.3889 9.36176 32.3889 9.34968C32.3889 8.06853 32.1317 6.84895 31.6656 5.73684C31.5098 5.36372 31.3299 5.00268 31.1283 4.65613C31.1283 4.65371 31.1259 4.6525 31.1259 4.6513C30.219 3.09362 28.8751 1.82333 27.2631 1.00585C27.257 1.00223 27.2498 0.998604 27.2437 0.996189C25.9964 0.36708 23.8881 0.00966001 22.398 0C22.3775 0 23.0598 0 23.0392 0C23.0187 0 22.9994 0 22.9788 0H3.28571C1.74735 0 0.5 1.24735 0.5 2.78571V22.6491C0.5 23.2927 0.565205 23.9218 0.689578 24.5292C0.689578 24.5304 0.689578 24.5316 0.689578 24.534C0.921418 25.6667 1.35853 26.7256 1.95987 27.6687C1.95987 27.6711 1.96228 27.6723 1.96349 27.6747C2.97055 29.2529 4.43887 30.5087 6.17767 31.2513C6.18371 31.2538 6.18975 31.2562 6.19578 31.2586C6.20907 31.2646 6.22356 31.2707 6.23684 31.2767C7.1316 31.6522 8.09639 31.8913 9.10707 31.971C9.35219 31.9903 9.59852 32 9.84848 32C11.1381 32 12.3661 31.7392 13.4831 31.267C14.2716 30.9338 15.0057 30.4955 15.6674 29.969C15.6686 29.969 15.6698 29.9678 15.671 29.9666C15.6831 29.9569 15.6964 29.9472 15.7085 29.9364C15.7121 29.934 15.7157 29.9303 15.7193 29.9279C16.5755 29.236 17.3072 28.3968 17.8747 27.4477C18.6789 26.1038 19.1559 24.5425 19.1945 22.8725V22.8689C19.1957 22.7964 19.197 22.724 19.197 22.6515C19.197 22.5791 19.197 22.5066 19.1945 22.4342V19.0954C19.1945 18.9517 19.3684 18.8793 19.4698 18.9807L27.9368 27.4477L29.9184 29.4292C30.8324 30.3433 32.3937 29.6961 32.3937 28.4041V24.8262C32.3937 24.1645 32.1305 23.5294 31.662 23.0609L28.7592 20.158L28.764 20.1556ZM23.0356 13.0024H14.117C13.768 13.0024 13.4843 13.2849 13.4843 13.6351V22.7276V22.7288C13.3696 25.279 10.8036 26.9309 8.44777 25.9444C7.17507 25.4119 6.31412 24.1838 6.23684 22.794V6.29471C6.23684 5.99042 6.48438 5.74288 6.78867 5.74288L14.4128 5.73805C14.4128 5.73805 14.4128 5.74046 14.4116 5.74167C16.0116 5.74167 17.6634 5.74167 19.197 5.74167C20.629 5.74167 21.9585 5.74167 23.0453 5.74408C25.0123 5.7465 26.6352 7.38387 26.6424 9.34485C26.6497 11.3553 25.0545 12.9746 23.0356 13.0036V13.0024Z" fill="#F56630"/>
</svg>
